# xmcd
#
# Track frame offsets:
#	150
#	22860
#	51589
#	72734
#	89320
#	100761
#	129064
#	166777
#	186205
#	210673
#	232899
#	264752
#	296530
#
# Disc length: 4355 seconds
#
# Revision: 0
# Processed by: cddbd v1.5.1PL2 Copyright (c) Steve Scherf et al.
# Submitted via: dBpowerAMP V4.0
#
DISCID=a911010d
DTITLE=Freddie King - I'm Tore Down. Live In Texas
DYEAR=2001
DGENRE=Blues
TTITLE0=Sweet Home Chicago
TTITLE1=Your Move
TTITLE2=Ain't Nobody's Business
TTITLE3=Living In The Palace Of The King
TTITLE4=Shake Your Booty Baby
TTITLE5=Mojo Boogie
TTITLE6=Look On Yonder Wall
TTITLE7=Woman Across The River
TTITLE8=Have You Ever Loved A Woman
TTITLE9=Rock Me Baby
TTITLE10=I'm Tore Down
TTITLE11=Hey Baby
TTITLE12=Boogie On Down
EXTD=Freddie King.\nI'm Tore Down. Live In Texas
EXTT0=
EXTT1=
EXTT2=
EXTT3=
EXTT4=
EXTT5=
EXTT6=
EXTT7=
EXTT8=
EXTT9=
EXTT10=
EXTT11=
EXTT12=
PLAYORDER=
